<svg width="99" height="78" viewBox="0 0 99 78" fill="none" xmlns="http://www.w3.org/2000/svg">
<path fill-rule="evenodd" clip-rule="evenodd" d="M0 25.8973L49.4987 78L99 25.8973L76.299 1.97291L68.4461 2.04195L68.4537 0.0265589L32.4055 0L32.4635 1.95166L22.6859 1.98884L0 25.8973Z" fill="white"/>
<path fill-rule="evenodd" clip-rule="evenodd" d="M46.7793 41.0699V54.1819C46.7213 55.7857 46.4892 56.6248 45.3843 56.6248H42.5968C42.1301 56.6248 42.0166 56.7655 42.0166 57.1133V58.6481C42.0166 59.0066 42.1326 59.1473 42.4808 59.1473C42.9449 59.1473 45.909 58.9402 49.1026 58.9402C53.5752 58.9402 55.7245 59.1473 56.0726 59.1473C56.3627 59.1473 56.4787 58.8579 56.4787 58.2976V57.1824C56.4787 56.7681 56.3627 56.6274 55.8405 56.6274H52.5283C51.3099 56.6274 51.1333 56.0008 51.0173 54.8112C50.9593 54.0438 50.9593 47.6285 50.9593 39.397V33.1889H57.3491C57.8132 33.1889 58.0453 33.1199 58.1033 32.8411L58.3934 30.5389C58.4514 30.2601 58.3934 29.8406 57.9873 29.8406H50.9567V28.4465C50.9567 23.566 50.8407 17.496 52.99 14.2193C54.2664 12.2677 55.8355 11.7791 57.3465 11.7791C58.4514 11.7791 59.2637 12.2676 60.018 13.3829C60.2501 13.7307 60.8908 14.6389 61.413 14.9867C61.8771 15.2655 62.4599 15.4062 63.0401 15.4062C63.9709 15.4062 65.4794 14.0812 65.4794 12.4057C65.4794 9.75572 62.9215 8.49976 60.192 8.49976C56.9379 8.49976 53.7442 9.96548 50.6641 14.0095C48.3988 17.0764 46.7717 21.6117 46.7717 28.5156V29.8406H43.404C42.9374 29.8406 42.7658 29.9096 42.7078 30.3291L42.4757 32.4215C42.3597 33.0482 42.4757 33.1889 42.7658 33.1889H46.7743V41.0699H46.7793ZM66.8341 35.2202C69.218 35.2202 70.2901 33.1438 70.2901 31.2797C70.2901 29.7051 69.276 27.772 67.1898 27.772C64.8059 27.772 63.5547 29.7078 63.5547 31.4948C63.5572 33.7863 65.5248 35.2202 66.8341 35.2202Z" fill="black"/>
</svg>
